<mxfile host="app.diagrams.net" agent="Mozilla/5.0 (Macintosh; Intel Mac OS X 10_15_7) AppleWebKit/537.36 (KHTML, like Gecko) Chrome/134.0.0.0 Safari/537.36" version="26.1.0">
  <diagram name="Page-1" id="Yk5gqsM_una3mSJjagre">
    <mxGraphModel dx="1605" dy="1182" grid="1" gridSize="10" guides="1" tooltips="1" connect="1" arrows="1" fold="1" page="1" pageScale="1" pageWidth="850" pageHeight="1100" math="0" shadow="0">
      <root>
        <mxCell id="0" />
        <mxCell id="1" parent="0" />
        <mxCell id="toREJBgp3T2Z5otdVvuI-4" value="" style="rounded=0;whiteSpace=wrap;html=1;fillColor=#E6E6E6;" parent="1" vertex="1">
          <mxGeometry x="1280" y="200" width="240" height="200" as="geometry" />
        </mxCell>
        <mxCell id="Hwh45yyVBSEUl5WAiRsI-37" value="" style="rounded=0;whiteSpace=wrap;html=1;fillColor=#E6E6E6;" parent="1" vertex="1">
          <mxGeometry x="140" y="420" width="240" height="210" as="geometry" />
        </mxCell>
        <mxCell id="Hwh45yyVBSEUl5WAiRsI-35" value="" style="rounded=0;whiteSpace=wrap;html=1;fillColor=#E6E6E6;" parent="1" vertex="1">
          <mxGeometry x="140" y="110" width="120" height="300" as="geometry" />
        </mxCell>
        <mxCell id="Hwh45yyVBSEUl5WAiRsI-8" style="edgeStyle=orthogonalEdgeStyle;rounded=0;orthogonalLoop=1;jettySize=auto;html=1;entryX=0.5;entryY=0;entryDx=0;entryDy=0;" parent="1" source="Hwh45yyVBSEUl5WAiRsI-1" target="Hwh45yyVBSEUl5WAiRsI-7" edge="1">
          <mxGeometry relative="1" as="geometry" />
        </mxCell>
        <mxCell id="Hwh45yyVBSEUl5WAiRsI-1" value="&lt;font face=&quot;Avenir&quot;&gt;BNF&lt;/font&gt;" style="rounded=0;whiteSpace=wrap;html=1;fillColor=#C3ABD0;" parent="1" vertex="1">
          <mxGeometry x="160" y="120" width="80" height="40" as="geometry" />
        </mxCell>
        <mxCell id="Hwh45yyVBSEUl5WAiRsI-4" style="edgeStyle=orthogonalEdgeStyle;rounded=0;orthogonalLoop=1;jettySize=auto;html=1;entryX=0.5;entryY=0;entryDx=0;entryDy=0;" parent="1" source="Hwh45yyVBSEUl5WAiRsI-3" target="Hwh45yyVBSEUl5WAiRsI-1" edge="1">
          <mxGeometry relative="1" as="geometry" />
        </mxCell>
        <mxCell id="Hwh45yyVBSEUl5WAiRsI-3" value="&lt;font face=&quot;Avenir&quot;&gt;DEVELOPER&lt;/font&gt;" style="text;html=1;align=center;verticalAlign=middle;resizable=0;points=[];autosize=1;strokeColor=none;fillColor=none;" parent="1" vertex="1">
          <mxGeometry x="155" y="60" width="90" height="30" as="geometry" />
        </mxCell>
        <mxCell id="Hwh45yyVBSEUl5WAiRsI-6" style="edgeStyle=orthogonalEdgeStyle;rounded=0;orthogonalLoop=1;jettySize=auto;html=1;entryX=1;entryY=0.5;entryDx=0;entryDy=0;exitX=0.5;exitY=1;exitDx=0;exitDy=0;" parent="1" source="Hwh45yyVBSEUl5WAiRsI-5" target="Hwh45yyVBSEUl5WAiRsI-7" edge="1">
          <mxGeometry relative="1" as="geometry">
            <mxPoint x="320" y="200" as="targetPoint" />
          </mxGeometry>
        </mxCell>
        <mxCell id="Hwh45yyVBSEUl5WAiRsI-5" value="&lt;font face=&quot;Avenir&quot;&gt;ANTLR&lt;/font&gt;" style="rounded=0;whiteSpace=wrap;html=1;fillColor=#A7D1A7;" parent="1" vertex="1">
          <mxGeometry x="280" y="120" width="80" height="40" as="geometry" />
        </mxCell>
        <mxCell id="Hwh45yyVBSEUl5WAiRsI-10" style="edgeStyle=orthogonalEdgeStyle;rounded=0;orthogonalLoop=1;jettySize=auto;html=1;" parent="1" source="Hwh45yyVBSEUl5WAiRsI-7" target="Hwh45yyVBSEUl5WAiRsI-9" edge="1">
          <mxGeometry relative="1" as="geometry" />
        </mxCell>
        <mxCell id="Hwh45yyVBSEUl5WAiRsI-7" value="&lt;font face=&quot;Avenir&quot;&gt;BNF-Parser&lt;/font&gt;" style="rounded=0;whiteSpace=wrap;html=1;fillColor=#91A8C9;" parent="1" vertex="1">
          <mxGeometry x="160" y="200" width="80" height="40" as="geometry" />
        </mxCell>
        <mxCell id="Hwh45yyVBSEUl5WAiRsI-11" style="edgeStyle=orthogonalEdgeStyle;rounded=0;orthogonalLoop=1;jettySize=auto;html=1;" parent="1" source="Hwh45yyVBSEUl5WAiRsI-9" target="Hwh45yyVBSEUl5WAiRsI-12" edge="1">
          <mxGeometry relative="1" as="geometry">
            <mxPoint x="200" y="360" as="targetPoint" />
          </mxGeometry>
        </mxCell>
        <mxCell id="Hwh45yyVBSEUl5WAiRsI-9" value="&lt;font face=&quot;Avenir&quot;&gt;Grammar&lt;/font&gt;" style="rounded=0;whiteSpace=wrap;html=1;fillColor=#91A8C9;" parent="1" vertex="1">
          <mxGeometry x="160" y="280" width="80" height="40" as="geometry" />
        </mxCell>
        <mxCell id="Hwh45yyVBSEUl5WAiRsI-12" value="&lt;font face=&quot;Avenir&quot;&gt;Grammar-Parser&lt;/font&gt;" style="rounded=0;whiteSpace=wrap;html=1;fillColor=#91A8C9;" parent="1" vertex="1">
          <mxGeometry x="160" y="360" width="80" height="40" as="geometry" />
        </mxCell>
        <mxCell id="Hwh45yyVBSEUl5WAiRsI-15" style="edgeStyle=orthogonalEdgeStyle;rounded=0;orthogonalLoop=1;jettySize=auto;html=1;entryX=1;entryY=0.5;entryDx=0;entryDy=0;exitX=0.5;exitY=1;exitDx=0;exitDy=0;" parent="1" source="Hwh45yyVBSEUl5WAiRsI-14" target="Hwh45yyVBSEUl5WAiRsI-12" edge="1">
          <mxGeometry relative="1" as="geometry" />
        </mxCell>
        <mxCell id="Hwh45yyVBSEUl5WAiRsI-14" value="&lt;font face=&quot;Avenir&quot;&gt;Tree-Sitter&lt;/font&gt;" style="rounded=0;whiteSpace=wrap;html=1;fillColor=#A7D1A7;" parent="1" vertex="1">
          <mxGeometry x="280" y="280" width="80" height="40" as="geometry" />
        </mxCell>
        <mxCell id="Hwh45yyVBSEUl5WAiRsI-18" value="&lt;font face=&quot;Avenir&quot;&gt;Computable Contract IDE&lt;/font&gt;" style="rounded=0;whiteSpace=wrap;html=1;fillColor=#91A8C9;" parent="1" vertex="1">
          <mxGeometry x="160" y="440" width="200" height="40" as="geometry" />
        </mxCell>
        <mxCell id="Hwh45yyVBSEUl5WAiRsI-23" style="edgeStyle=orthogonalEdgeStyle;rounded=0;orthogonalLoop=1;jettySize=auto;html=1;exitX=0.25;exitY=1;exitDx=0;exitDy=0;entryX=0.102;entryY=-0.06;entryDx=0;entryDy=0;entryPerimeter=0;" parent="1" source="Hwh45yyVBSEUl5WAiRsI-12" target="Hwh45yyVBSEUl5WAiRsI-18" edge="1">
          <mxGeometry relative="1" as="geometry" />
        </mxCell>
        <mxCell id="Hwh45yyVBSEUl5WAiRsI-26" style="edgeStyle=orthogonalEdgeStyle;rounded=0;orthogonalLoop=1;jettySize=auto;html=1;exitX=0.25;exitY=0;exitDx=0;exitDy=0;entryX=0.628;entryY=0.982;entryDx=0;entryDy=0;entryPerimeter=0;" parent="1" source="Hwh45yyVBSEUl5WAiRsI-18" target="Hwh45yyVBSEUl5WAiRsI-12" edge="1">
          <mxGeometry relative="1" as="geometry" />
        </mxCell>
        <mxCell id="Hwh45yyVBSEUl5WAiRsI-28" value="&lt;font face=&quot;Avenir&quot;&gt;Contract&lt;/font&gt;" style="rounded=0;whiteSpace=wrap;html=1;fillColor=#C3ABD0;" parent="1" vertex="1">
          <mxGeometry x="160" y="520" width="80" height="40" as="geometry" />
        </mxCell>
        <mxCell id="Hwh45yyVBSEUl5WAiRsI-31" style="edgeStyle=orthogonalEdgeStyle;rounded=0;orthogonalLoop=1;jettySize=auto;html=1;entryX=0.202;entryY=1.041;entryDx=0;entryDy=0;entryPerimeter=0;" parent="1" source="Hwh45yyVBSEUl5WAiRsI-28" target="Hwh45yyVBSEUl5WAiRsI-18" edge="1">
          <mxGeometry relative="1" as="geometry" />
        </mxCell>
        <mxCell id="Hwh45yyVBSEUl5WAiRsI-33" style="edgeStyle=orthogonalEdgeStyle;rounded=0;orthogonalLoop=1;jettySize=auto;html=1;entryX=0.5;entryY=1;entryDx=0;entryDy=0;" parent="1" source="Hwh45yyVBSEUl5WAiRsI-32" target="Hwh45yyVBSEUl5WAiRsI-28" edge="1">
          <mxGeometry relative="1" as="geometry" />
        </mxCell>
        <mxCell id="Hwh45yyVBSEUl5WAiRsI-32" value="&lt;font face=&quot;Avenir&quot;&gt;USER&lt;/font&gt;" style="text;html=1;align=center;verticalAlign=middle;resizable=0;points=[];autosize=1;strokeColor=none;fillColor=none;" parent="1" vertex="1">
          <mxGeometry x="175" y="590" width="50" height="30" as="geometry" />
        </mxCell>
        <mxCell id="Hwh45yyVBSEUl5WAiRsI-38" value="&lt;font face=&quot;Avenir&quot;&gt;Developer&amp;nbsp;&lt;/font&gt;&lt;div&gt;&lt;font face=&quot;Avenir&quot;&gt;Facing&lt;/font&gt;&lt;/div&gt;" style="text;html=1;align=center;verticalAlign=middle;resizable=0;points=[];autosize=1;strokeColor=none;fillColor=none;" parent="1" vertex="1">
          <mxGeometry x="60" y="230" width="80" height="40" as="geometry" />
        </mxCell>
        <mxCell id="Hwh45yyVBSEUl5WAiRsI-39" value="&lt;font face=&quot;Avenir&quot;&gt;User Facing&lt;/font&gt;" style="text;html=1;align=center;verticalAlign=middle;resizable=0;points=[];autosize=1;strokeColor=none;fillColor=none;" parent="1" vertex="1">
          <mxGeometry x="260" y="530" width="90" height="30" as="geometry" />
        </mxCell>
        <mxCell id="Hwh45yyVBSEUl5WAiRsI-41" value="&lt;font face=&quot;Avenir&quot;&gt;User/Dev Interactions&lt;/font&gt;" style="rounded=0;whiteSpace=wrap;html=1;fillColor=#C3ABD0;" parent="1" vertex="1">
          <mxGeometry x="400" y="120" width="80" height="40" as="geometry" />
        </mxCell>
        <mxCell id="Hwh45yyVBSEUl5WAiRsI-42" value="&lt;font face=&quot;Avenir&quot;&gt;Tools&lt;/font&gt;" style="rounded=0;whiteSpace=wrap;html=1;fillColor=#A7D1A7;" parent="1" vertex="1">
          <mxGeometry x="400" y="160" width="80" height="40" as="geometry" />
        </mxCell>
        <mxCell id="Hwh45yyVBSEUl5WAiRsI-43" value="&lt;font face=&quot;Avenir&quot;&gt;Parser Pipeline&lt;/font&gt;" style="rounded=0;whiteSpace=wrap;html=1;fillColor=#91A8C9;" parent="1" vertex="1">
          <mxGeometry x="400" y="200" width="80" height="40" as="geometry" />
        </mxCell>
        <mxCell id="toREJBgp3T2Z5otdVvuI-7" style="edgeStyle=orthogonalEdgeStyle;rounded=0;orthogonalLoop=1;jettySize=auto;html=1;entryX=0.5;entryY=1;entryDx=0;entryDy=0;" parent="1" source="toREJBgp3T2Z5otdVvuI-1" target="toREJBgp3T2Z5otdVvuI-4" edge="1">
          <mxGeometry relative="1" as="geometry" />
        </mxCell>
        <mxCell id="toREJBgp3T2Z5otdVvuI-1" value="&lt;font face=&quot;Avenir&quot;&gt;Legal Language&lt;/font&gt;" style="rounded=0;whiteSpace=wrap;html=1;fillColor=#C3ABD0;" parent="1" vertex="1">
          <mxGeometry x="1339" y="440" width="122" height="40" as="geometry" />
        </mxCell>
        <mxCell id="toREJBgp3T2Z5otdVvuI-5" style="edgeStyle=orthogonalEdgeStyle;rounded=0;orthogonalLoop=1;jettySize=auto;html=1;entryX=0;entryY=0.5;entryDx=0;entryDy=0;" parent="1" source="toREJBgp3T2Z5otdVvuI-2" target="toREJBgp3T2Z5otdVvuI-4" edge="1">
          <mxGeometry relative="1" as="geometry" />
        </mxCell>
        <mxCell id="toREJBgp3T2Z5otdVvuI-2" value="&lt;font face=&quot;Avenir&quot;&gt;Analysis Tools&lt;/font&gt;" style="rounded=0;whiteSpace=wrap;html=1;fillColor=#A7D1A7;" parent="1" vertex="1">
          <mxGeometry x="1120" y="280" width="120" height="40" as="geometry" />
        </mxCell>
        <mxCell id="toREJBgp3T2Z5otdVvuI-6" style="edgeStyle=orthogonalEdgeStyle;rounded=0;orthogonalLoop=1;jettySize=auto;html=1;entryX=1;entryY=0.5;entryDx=0;entryDy=0;" parent="1" source="toREJBgp3T2Z5otdVvuI-3" target="toREJBgp3T2Z5otdVvuI-4" edge="1">
          <mxGeometry relative="1" as="geometry" />
        </mxCell>
        <mxCell id="toREJBgp3T2Z5otdVvuI-3" value="&lt;font face=&quot;Avenir&quot;&gt;Visualisation Tools&lt;/font&gt;" style="rounded=0;whiteSpace=wrap;html=1;fillColor=#91A8C9;" parent="1" vertex="1">
          <mxGeometry x="1560" y="280" width="120" height="40" as="geometry" />
        </mxCell>
        <mxCell id="toREJBgp3T2Z5otdVvuI-8" value="&lt;font face=&quot;Avenir&quot;&gt;Computable Contracts IDE&lt;/font&gt;" style="text;html=1;align=center;verticalAlign=middle;whiteSpace=wrap;rounded=0;fontStyle=1;fillColor=#F2F2F2;" parent="1" vertex="1">
          <mxGeometry x="1301.63" y="220" width="192.75" height="50" as="geometry" />
        </mxCell>
        <mxCell id="toREJBgp3T2Z5otdVvuI-9" value="&lt;font face=&quot;Avenir&quot;&gt;Contract Editor&lt;/font&gt;" style="rounded=0;whiteSpace=wrap;html=1;fontStyle=0" parent="1" vertex="1">
          <mxGeometry x="1310" y="280" width="80" height="100" as="geometry" />
        </mxCell>
        <mxCell id="toREJBgp3T2Z5otdVvuI-10" value="&lt;font face=&quot;Avenir&quot;&gt;Contract Parser&lt;/font&gt;" style="rounded=0;whiteSpace=wrap;html=1;fontStyle=0" parent="1" vertex="1">
          <mxGeometry x="1410" y="280" width="80" height="100" as="geometry" />
        </mxCell>
        <mxCell id="ZlwTb9oOvierl9NkocId-6" style="edgeStyle=orthogonalEdgeStyle;rounded=0;orthogonalLoop=1;jettySize=auto;html=1;entryX=1;entryY=0.5;entryDx=0;entryDy=0;" parent="1" source="ZlwTb9oOvierl9NkocId-1" target="toREJBgp3T2Z5otdVvuI-3" edge="1">
          <mxGeometry relative="1" as="geometry" />
        </mxCell>
        <mxCell id="ZlwTb9oOvierl9NkocId-1" value="&lt;font face=&quot;Avenir&quot;&gt;Tree&lt;/font&gt;" style="rounded=0;whiteSpace=wrap;html=1;fillColor=#91A8C9;" parent="1" vertex="1">
          <mxGeometry x="1720" y="200" width="80" height="40" as="geometry" />
        </mxCell>
        <mxCell id="ZlwTb9oOvierl9NkocId-5" style="edgeStyle=orthogonalEdgeStyle;rounded=0;orthogonalLoop=1;jettySize=auto;html=1;exitX=0;exitY=0.5;exitDx=0;exitDy=0;" parent="1" source="ZlwTb9oOvierl9NkocId-2" edge="1">
          <mxGeometry relative="1" as="geometry">
            <mxPoint x="1680" y="300.16666666666674" as="targetPoint" />
          </mxGeometry>
        </mxCell>
        <mxCell id="ZlwTb9oOvierl9NkocId-2" value="&lt;font face=&quot;Avenir&quot;&gt;File&lt;/font&gt;" style="rounded=0;whiteSpace=wrap;html=1;fillColor=#91A8C9;" parent="1" vertex="1">
          <mxGeometry x="1720" y="280" width="80" height="40" as="geometry" />
        </mxCell>
        <mxCell id="ZlwTb9oOvierl9NkocId-4" style="edgeStyle=orthogonalEdgeStyle;rounded=0;orthogonalLoop=1;jettySize=auto;html=1;exitX=0;exitY=0.5;exitDx=0;exitDy=0;entryX=1;entryY=0.5;entryDx=0;entryDy=0;" parent="1" source="ZlwTb9oOvierl9NkocId-3" target="toREJBgp3T2Z5otdVvuI-3" edge="1">
          <mxGeometry relative="1" as="geometry" />
        </mxCell>
        <mxCell id="ZlwTb9oOvierl9NkocId-3" value="&lt;font face=&quot;Avenir&quot;&gt;PDF&lt;/font&gt;" style="rounded=0;whiteSpace=wrap;html=1;fillColor=#91A8C9;" parent="1" vertex="1">
          <mxGeometry x="1720" y="360" width="80" height="40" as="geometry" />
        </mxCell>
        <mxCell id="ZlwTb9oOvierl9NkocId-8" style="edgeStyle=orthogonalEdgeStyle;rounded=0;orthogonalLoop=1;jettySize=auto;html=1;entryX=0;entryY=0.5;entryDx=0;entryDy=0;" parent="1" source="ZlwTb9oOvierl9NkocId-7" target="toREJBgp3T2Z5otdVvuI-2" edge="1">
          <mxGeometry relative="1" as="geometry" />
        </mxCell>
        <mxCell id="ZlwTb9oOvierl9NkocId-7" value="&lt;font face=&quot;Avenir&quot;&gt;Dynamic&lt;/font&gt;" style="rounded=0;whiteSpace=wrap;html=1;fillColor=#A7D1A7;" parent="1" vertex="1">
          <mxGeometry x="1000" y="240" width="80" height="40" as="geometry" />
        </mxCell>
        <mxCell id="ZlwTb9oOvierl9NkocId-11" style="edgeStyle=orthogonalEdgeStyle;rounded=0;orthogonalLoop=1;jettySize=auto;html=1;entryX=0;entryY=0.5;entryDx=0;entryDy=0;" parent="1" source="ZlwTb9oOvierl9NkocId-9" target="toREJBgp3T2Z5otdVvuI-2" edge="1">
          <mxGeometry relative="1" as="geometry" />
        </mxCell>
        <mxCell id="ZlwTb9oOvierl9NkocId-9" value="&lt;font face=&quot;Avenir&quot;&gt;Static&lt;/font&gt;" style="rounded=0;whiteSpace=wrap;html=1;fillColor=#A7D1A7;" parent="1" vertex="1">
          <mxGeometry x="1000" y="320" width="80" height="40" as="geometry" />
        </mxCell>
        <mxCell id="ZlwTb9oOvierl9NkocId-15" style="edgeStyle=orthogonalEdgeStyle;rounded=0;orthogonalLoop=1;jettySize=auto;html=1;entryX=0.5;entryY=0;entryDx=0;entryDy=0;exitX=0.5;exitY=1;exitDx=0;exitDy=0;" parent="1" source="ZlwTb9oOvierl9NkocId-12" target="ZlwTb9oOvierl9NkocId-7" edge="1">
          <mxGeometry relative="1" as="geometry" />
        </mxCell>
        <mxCell id="ZlwTb9oOvierl9NkocId-12" value="&lt;font face=&quot;Avenir&quot;&gt;Consistency&lt;/font&gt;" style="rounded=0;whiteSpace=wrap;html=1;fillColor=#A7D1A7;" parent="1" vertex="1">
          <mxGeometry x="880" y="160" width="80" height="40" as="geometry" />
        </mxCell>
        <mxCell id="ZlwTb9oOvierl9NkocId-16" style="edgeStyle=orthogonalEdgeStyle;rounded=0;orthogonalLoop=1;jettySize=auto;html=1;" parent="1" source="ZlwTb9oOvierl9NkocId-13" edge="1">
          <mxGeometry relative="1" as="geometry">
            <mxPoint x="1040" y="240" as="targetPoint" />
          </mxGeometry>
        </mxCell>
        <mxCell id="ZlwTb9oOvierl9NkocId-13" value="&lt;font face=&quot;Avenir&quot;&gt;Vagueness&lt;/font&gt;" style="rounded=0;whiteSpace=wrap;html=1;fillColor=#A7D1A7;" parent="1" vertex="1">
          <mxGeometry x="1000" y="160" width="80" height="40" as="geometry" />
        </mxCell>
        <mxCell id="ZlwTb9oOvierl9NkocId-17" style="edgeStyle=orthogonalEdgeStyle;rounded=0;orthogonalLoop=1;jettySize=auto;html=1;entryX=0.5;entryY=0;entryDx=0;entryDy=0;exitX=0.5;exitY=1;exitDx=0;exitDy=0;" parent="1" source="ZlwTb9oOvierl9NkocId-14" target="ZlwTb9oOvierl9NkocId-7" edge="1">
          <mxGeometry relative="1" as="geometry" />
        </mxCell>
        <mxCell id="ZlwTb9oOvierl9NkocId-14" value="&lt;font face=&quot;Avenir&quot;&gt;Completeness&lt;/font&gt;" style="rounded=0;whiteSpace=wrap;html=1;fillColor=#A7D1A7;" parent="1" vertex="1">
          <mxGeometry x="1120" y="160" width="80" height="40" as="geometry" />
        </mxCell>
        <mxCell id="ZlwTb9oOvierl9NkocId-19" style="edgeStyle=orthogonalEdgeStyle;rounded=0;orthogonalLoop=1;jettySize=auto;html=1;entryX=0.5;entryY=1;entryDx=0;entryDy=0;" parent="1" source="ZlwTb9oOvierl9NkocId-18" target="ZlwTb9oOvierl9NkocId-9" edge="1">
          <mxGeometry relative="1" as="geometry" />
        </mxCell>
        <mxCell id="ZlwTb9oOvierl9NkocId-18" value="&lt;font face=&quot;Avenir&quot;&gt;Event Simulation&lt;/font&gt;" style="rounded=0;whiteSpace=wrap;html=1;fillColor=#A7D1A7;" parent="1" vertex="1">
          <mxGeometry x="1000" y="400" width="80" height="40" as="geometry" />
        </mxCell>
        <mxCell id="ZlwTb9oOvierl9NkocId-30" style="edgeStyle=orthogonalEdgeStyle;rounded=0;orthogonalLoop=1;jettySize=auto;html=1;exitX=0.5;exitY=0;exitDx=0;exitDy=0;entryX=0.5;entryY=1;entryDx=0;entryDy=0;" parent="1" source="ZlwTb9oOvierl9NkocId-20" target="toREJBgp3T2Z5otdVvuI-1" edge="1">
          <mxGeometry relative="1" as="geometry" />
        </mxCell>
        <mxCell id="ZlwTb9oOvierl9NkocId-20" value="&lt;font face=&quot;Avenir&quot;&gt;Lexon&lt;/font&gt;" style="rounded=0;whiteSpace=wrap;html=1;fillColor=#C3ABD0;" parent="1" vertex="1">
          <mxGeometry x="1240" y="520" width="82" height="40" as="geometry" />
        </mxCell>
        <mxCell id="ZlwTb9oOvierl9NkocId-28" style="edgeStyle=orthogonalEdgeStyle;rounded=0;orthogonalLoop=1;jettySize=auto;html=1;" parent="1" source="ZlwTb9oOvierl9NkocId-21" edge="1">
          <mxGeometry relative="1" as="geometry">
            <mxPoint x="1399.9999999999995" y="480" as="targetPoint" />
          </mxGeometry>
        </mxCell>
        <mxCell id="ZlwTb9oOvierl9NkocId-21" value="&lt;font face=&quot;Avenir&quot;&gt;CoLa&lt;/font&gt;" style="rounded=0;whiteSpace=wrap;html=1;fillColor=#C3ABD0;" parent="1" vertex="1">
          <mxGeometry x="1359" y="520" width="82" height="40" as="geometry" />
        </mxCell>
        <mxCell id="ZlwTb9oOvierl9NkocId-27" style="edgeStyle=orthogonalEdgeStyle;rounded=0;orthogonalLoop=1;jettySize=auto;html=1;entryX=0.5;entryY=1;entryDx=0;entryDy=0;exitX=0.5;exitY=0;exitDx=0;exitDy=0;" parent="1" source="ZlwTb9oOvierl9NkocId-22" target="toREJBgp3T2Z5otdVvuI-1" edge="1">
          <mxGeometry relative="1" as="geometry" />
        </mxCell>
        <mxCell id="ZlwTb9oOvierl9NkocId-22" value="&lt;font face=&quot;Avenir&quot;&gt;L4&lt;/font&gt;" style="rounded=0;whiteSpace=wrap;html=1;fillColor=#C3ABD0;" parent="1" vertex="1">
          <mxGeometry x="1478" y="520" width="82" height="40" as="geometry" />
        </mxCell>
        <mxCell id="ZlwTb9oOvierl9NkocId-32" style="edgeStyle=orthogonalEdgeStyle;rounded=0;orthogonalLoop=1;jettySize=auto;html=1;entryX=0.5;entryY=0;entryDx=0;entryDy=0;" parent="1" source="ZlwTb9oOvierl9NkocId-31" target="toREJBgp3T2Z5otdVvuI-4" edge="1">
          <mxGeometry relative="1" as="geometry" />
        </mxCell>
        <mxCell id="ZlwTb9oOvierl9NkocId-31" value="&lt;font face=&quot;Avenir&quot;&gt;Developmental Tools&lt;/font&gt;" style="rounded=0;whiteSpace=wrap;html=1;fillColor=#E8A665;" parent="1" vertex="1">
          <mxGeometry x="1340" y="120" width="120" height="40" as="geometry" />
        </mxCell>
        <mxCell id="ZlwTb9oOvierl9NkocId-38" style="edgeStyle=orthogonalEdgeStyle;rounded=0;orthogonalLoop=1;jettySize=auto;html=1;entryX=0.5;entryY=0;entryDx=0;entryDy=0;exitX=0.5;exitY=1;exitDx=0;exitDy=0;" parent="1" source="ZlwTb9oOvierl9NkocId-33" target="ZlwTb9oOvierl9NkocId-31" edge="1">
          <mxGeometry relative="1" as="geometry" />
        </mxCell>
        <mxCell id="ZlwTb9oOvierl9NkocId-33" value="&lt;font face=&quot;Avenir&quot;&gt;Syntax Highlighting&lt;/font&gt;" style="rounded=0;whiteSpace=wrap;html=1;fillColor=#E8A665;" parent="1" vertex="1">
          <mxGeometry x="1240" y="40" width="78" height="40" as="geometry" />
        </mxCell>
        <mxCell id="ZlwTb9oOvierl9NkocId-37" style="edgeStyle=orthogonalEdgeStyle;rounded=0;orthogonalLoop=1;jettySize=auto;html=1;entryX=0.5;entryY=0;entryDx=0;entryDy=0;" parent="1" source="ZlwTb9oOvierl9NkocId-34" target="ZlwTb9oOvierl9NkocId-31" edge="1">
          <mxGeometry relative="1" as="geometry" />
        </mxCell>
        <mxCell id="ZlwTb9oOvierl9NkocId-34" value="&lt;font face=&quot;Avenir&quot;&gt;Auto-Suggestion&lt;/font&gt;" style="rounded=0;whiteSpace=wrap;html=1;fillColor=#E8A665;" parent="1" vertex="1">
          <mxGeometry x="1359.5" y="40" width="80.5" height="40" as="geometry" />
        </mxCell>
        <mxCell id="ZlwTb9oOvierl9NkocId-39" style="edgeStyle=orthogonalEdgeStyle;rounded=0;orthogonalLoop=1;jettySize=auto;html=1;entryX=0.5;entryY=0;entryDx=0;entryDy=0;exitX=0.5;exitY=1;exitDx=0;exitDy=0;" parent="1" source="ZlwTb9oOvierl9NkocId-35" target="ZlwTb9oOvierl9NkocId-31" edge="1">
          <mxGeometry relative="1" as="geometry" />
        </mxCell>
        <mxCell id="ZlwTb9oOvierl9NkocId-35" value="&lt;font face=&quot;Avenir&quot;&gt;Formatting&lt;/font&gt;" style="rounded=0;whiteSpace=wrap;html=1;fillColor=#E8A665;" parent="1" vertex="1">
          <mxGeometry x="1480" y="40" width="80" height="40" as="geometry" />
        </mxCell>
        <mxCell id="mIFlO-JkNO0YrqFu7DN3-11" style="edgeStyle=orthogonalEdgeStyle;rounded=0;orthogonalLoop=1;jettySize=auto;html=1;exitX=0.5;exitY=1;exitDx=0;exitDy=0;fontSize=12;startSize=8;endSize=8;entryX=0.5;entryY=0;entryDx=0;entryDy=0;" parent="1" source="mIFlO-JkNO0YrqFu7DN3-1" target="mIFlO-JkNO0YrqFu7DN3-8" edge="1">
          <mxGeometry relative="1" as="geometry">
            <mxPoint x="-559.7272727272727" y="240" as="targetPoint" />
          </mxGeometry>
        </mxCell>
        <mxCell id="mIFlO-JkNO0YrqFu7DN3-13" style="edgeStyle=orthogonalEdgeStyle;rounded=0;orthogonalLoop=1;jettySize=auto;html=1;entryX=0.5;entryY=0;entryDx=0;entryDy=0;fontSize=12;startSize=8;endSize=8;" parent="1" source="mIFlO-JkNO0YrqFu7DN3-1" target="mIFlO-JkNO0YrqFu7DN3-2" edge="1">
          <mxGeometry relative="1" as="geometry">
            <Array as="points">
              <mxPoint x="-560" y="240" />
              <mxPoint x="-740" y="240" />
            </Array>
          </mxGeometry>
        </mxCell>
        <mxCell id="mIFlO-JkNO0YrqFu7DN3-1" value="&lt;font face=&quot;Avenir&quot;&gt;Conditional&lt;/font&gt;" style="rounded=0;whiteSpace=wrap;html=1;fillColor=#A7D1A7;" parent="1" vertex="1">
          <mxGeometry x="-600" y="160" width="80" height="40" as="geometry" />
        </mxCell>
        <mxCell id="mIFlO-JkNO0YrqFu7DN3-2" value="&lt;font face=&quot;Avenir&quot;&gt;IF&lt;/font&gt;" style="rounded=0;whiteSpace=wrap;html=1;fillColor=light-dark(#c3abd0, #294e29);" parent="1" vertex="1">
          <mxGeometry x="-780" y="280" width="80" height="40" as="geometry" />
        </mxCell>
        <mxCell id="mIFlO-JkNO0YrqFu7DN3-18" style="edgeStyle=none;curved=1;rounded=0;orthogonalLoop=1;jettySize=auto;html=1;exitX=0.5;exitY=1;exitDx=0;exitDy=0;entryX=0.5;entryY=0;entryDx=0;entryDy=0;fontSize=12;startSize=8;endSize=8;" parent="1" source="mIFlO-JkNO0YrqFu7DN3-3" target="mIFlO-JkNO0YrqFu7DN3-16" edge="1">
          <mxGeometry relative="1" as="geometry" />
        </mxCell>
        <mxCell id="mIFlO-JkNO0YrqFu7DN3-3" value="&lt;font face=&quot;Avenir&quot;&gt;Condition&lt;/font&gt;" style="rounded=0;whiteSpace=wrap;html=1;fillColor=#A7D1A7;" parent="1" vertex="1">
          <mxGeometry x="-660" y="280" width="80" height="40" as="geometry" />
        </mxCell>
        <mxCell id="mIFlO-JkNO0YrqFu7DN3-19" style="edgeStyle=none;curved=1;rounded=0;orthogonalLoop=1;jettySize=auto;html=1;entryX=0.5;entryY=0;entryDx=0;entryDy=0;fontSize=12;startSize=8;endSize=8;" parent="1" source="mIFlO-JkNO0YrqFu7DN3-4" target="mIFlO-JkNO0YrqFu7DN3-17" edge="1">
          <mxGeometry relative="1" as="geometry" />
        </mxCell>
        <mxCell id="mIFlO-JkNO0YrqFu7DN3-4" value="&lt;font face=&quot;Avenir&quot;&gt;Statement&lt;/font&gt;" style="rounded=0;whiteSpace=wrap;html=1;fillColor=#A7D1A7;" parent="1" vertex="1">
          <mxGeometry x="-420" y="280" width="80" height="40" as="geometry" />
        </mxCell>
        <mxCell id="mIFlO-JkNO0YrqFu7DN3-5" value="&lt;font face=&quot;Avenir&quot;&gt;Non-Terminal&lt;/font&gt;" style="rounded=0;whiteSpace=wrap;html=1;fillColor=#A7D1A7;" parent="1" vertex="1">
          <mxGeometry x="-440" y="120" width="80" height="40" as="geometry" />
        </mxCell>
        <mxCell id="mIFlO-JkNO0YrqFu7DN3-7" value="&lt;font face=&quot;Avenir&quot;&gt;Terminal&lt;/font&gt;" style="rounded=0;whiteSpace=wrap;html=1;fillColor=#C3ABD0;" parent="1" vertex="1">
          <mxGeometry x="-440" y="160" width="80" height="40" as="geometry" />
        </mxCell>
        <mxCell id="mIFlO-JkNO0YrqFu7DN3-8" value="&lt;font face=&quot;Avenir&quot;&gt;THEN&lt;/font&gt;" style="rounded=0;whiteSpace=wrap;html=1;fillColor=light-dark(#c3abd0, #294e29);" parent="1" vertex="1">
          <mxGeometry x="-540" y="280" width="80" height="40" as="geometry" />
        </mxCell>
        <mxCell id="mIFlO-JkNO0YrqFu7DN3-14" style="edgeStyle=orthogonalEdgeStyle;rounded=0;orthogonalLoop=1;jettySize=auto;html=1;entryX=0.5;entryY=0;entryDx=0;entryDy=0;fontSize=12;startSize=8;endSize=8;exitX=0.5;exitY=1;exitDx=0;exitDy=0;" parent="1" source="mIFlO-JkNO0YrqFu7DN3-1" target="mIFlO-JkNO0YrqFu7DN3-3" edge="1">
          <mxGeometry relative="1" as="geometry">
            <mxPoint x="-550" y="210" as="sourcePoint" />
            <mxPoint x="-730" y="290" as="targetPoint" />
            <Array as="points">
              <mxPoint x="-560" y="240" />
              <mxPoint x="-620" y="240" />
            </Array>
          </mxGeometry>
        </mxCell>
        <mxCell id="mIFlO-JkNO0YrqFu7DN3-15" style="edgeStyle=orthogonalEdgeStyle;rounded=0;orthogonalLoop=1;jettySize=auto;html=1;entryX=0.5;entryY=0;entryDx=0;entryDy=0;fontSize=12;startSize=8;endSize=8;exitX=0.5;exitY=1;exitDx=0;exitDy=0;" parent="1" source="mIFlO-JkNO0YrqFu7DN3-1" target="mIFlO-JkNO0YrqFu7DN3-4" edge="1">
          <mxGeometry relative="1" as="geometry">
            <mxPoint x="-550" y="210" as="sourcePoint" />
            <mxPoint x="-610" y="290" as="targetPoint" />
            <Array as="points">
              <mxPoint x="-560" y="240" />
              <mxPoint x="-380" y="240" />
            </Array>
          </mxGeometry>
        </mxCell>
        <mxCell id="mIFlO-JkNO0YrqFu7DN3-16" value="&lt;font face=&quot;Avenir&quot;&gt;SENTENCE&lt;/font&gt;" style="rounded=0;whiteSpace=wrap;html=1;fillColor=light-dark(#c3abd0, #294e29);" parent="1" vertex="1">
          <mxGeometry x="-660" y="360" width="80" height="40" as="geometry" />
        </mxCell>
        <mxCell id="mIFlO-JkNO0YrqFu7DN3-17" value="&lt;font face=&quot;Avenir&quot;&gt;SENTENCE&lt;/font&gt;" style="rounded=0;whiteSpace=wrap;html=1;fillColor=light-dark(#c3abd0, #294e29);" parent="1" vertex="1">
          <mxGeometry x="-420" y="360" width="80" height="40" as="geometry" />
        </mxCell>
        <mxCell id="5_p8MwsJ-TnmLGE_cLR3-1" value="" style="rounded=0;whiteSpace=wrap;html=1;fillColor=#E6E6E6;" vertex="1" parent="1">
          <mxGeometry x="240" y="1390" width="240" height="140" as="geometry" />
        </mxCell>
        <mxCell id="5_p8MwsJ-TnmLGE_cLR3-2" value="" style="rounded=0;whiteSpace=wrap;html=1;fillColor=#E6E6E6;" vertex="1" parent="1">
          <mxGeometry x="180" y="1260" width="390" height="80" as="geometry" />
        </mxCell>
        <mxCell id="5_p8MwsJ-TnmLGE_cLR3-4" value="&lt;font face=&quot;Avenir&quot;&gt;Language&lt;/font&gt;" style="rounded=0;whiteSpace=wrap;html=1;fillColor=#C3ABD0;" vertex="1" parent="1">
          <mxGeometry x="320" y="1180" width="80" height="40" as="geometry" />
        </mxCell>
        <mxCell id="5_p8MwsJ-TnmLGE_cLR3-32" style="edgeStyle=orthogonalEdgeStyle;rounded=0;orthogonalLoop=1;jettySize=auto;html=1;entryX=0;entryY=0.5;entryDx=0;entryDy=0;fontSize=12;startSize=8;endSize=8;" edge="1" parent="1" source="5_p8MwsJ-TnmLGE_cLR3-6" target="5_p8MwsJ-TnmLGE_cLR3-4">
          <mxGeometry relative="1" as="geometry" />
        </mxCell>
        <mxCell id="5_p8MwsJ-TnmLGE_cLR3-33" style="edgeStyle=none;curved=1;rounded=0;orthogonalLoop=1;jettySize=auto;html=1;entryX=0.5;entryY=0;entryDx=0;entryDy=0;fontSize=12;startSize=8;endSize=8;" edge="1" parent="1" source="5_p8MwsJ-TnmLGE_cLR3-6" target="5_p8MwsJ-TnmLGE_cLR3-10">
          <mxGeometry relative="1" as="geometry" />
        </mxCell>
        <mxCell id="5_p8MwsJ-TnmLGE_cLR3-34" style="edgeStyle=orthogonalEdgeStyle;rounded=0;orthogonalLoop=1;jettySize=auto;html=1;entryX=0.5;entryY=0;entryDx=0;entryDy=0;fontSize=12;startSize=8;endSize=8;strokeColor=default;" edge="1" parent="1" source="5_p8MwsJ-TnmLGE_cLR3-6" target="5_p8MwsJ-TnmLGE_cLR3-12">
          <mxGeometry relative="1" as="geometry">
            <Array as="points">
              <mxPoint x="240" y="1230" />
              <mxPoint x="360" y="1230" />
            </Array>
          </mxGeometry>
        </mxCell>
        <mxCell id="5_p8MwsJ-TnmLGE_cLR3-35" style="edgeStyle=orthogonalEdgeStyle;rounded=0;orthogonalLoop=1;jettySize=auto;html=1;entryX=0.5;entryY=0;entryDx=0;entryDy=0;fontSize=12;startSize=8;endSize=8;" edge="1" parent="1" source="5_p8MwsJ-TnmLGE_cLR3-6" target="5_p8MwsJ-TnmLGE_cLR3-31">
          <mxGeometry relative="1" as="geometry">
            <Array as="points">
              <mxPoint x="240" y="1230" />
              <mxPoint x="500" y="1230" />
            </Array>
          </mxGeometry>
        </mxCell>
        <mxCell id="5_p8MwsJ-TnmLGE_cLR3-6" value="&lt;font face=&quot;Avenir&quot;&gt;DEVELOPER&lt;/font&gt;" style="text;html=1;align=center;verticalAlign=middle;resizable=0;points=[];autosize=1;strokeColor=none;fillColor=none;" vertex="1" parent="1">
          <mxGeometry x="195" y="1185" width="90" height="30" as="geometry" />
        </mxCell>
        <mxCell id="5_p8MwsJ-TnmLGE_cLR3-36" style="edgeStyle=orthogonalEdgeStyle;rounded=0;orthogonalLoop=1;jettySize=auto;html=1;entryX=0.5;entryY=0;entryDx=0;entryDy=0;fontSize=12;startSize=8;endSize=8;startArrow=classic;startFill=1;" edge="1" parent="1" source="5_p8MwsJ-TnmLGE_cLR3-10" target="5_p8MwsJ-TnmLGE_cLR3-16">
          <mxGeometry relative="1" as="geometry">
            <Array as="points">
              <mxPoint x="240" y="1370" />
              <mxPoint x="360" y="1370" />
            </Array>
          </mxGeometry>
        </mxCell>
        <mxCell id="5_p8MwsJ-TnmLGE_cLR3-10" value="&lt;font face=&quot;Avenir&quot;&gt;Parser&lt;/font&gt;" style="rounded=0;whiteSpace=wrap;html=1;fillColor=light-dark(#c3abd0, #4e617e);" vertex="1" parent="1">
          <mxGeometry x="200" y="1280" width="80" height="40" as="geometry" />
        </mxCell>
        <mxCell id="5_p8MwsJ-TnmLGE_cLR3-37" style="edgeStyle=orthogonalEdgeStyle;rounded=0;orthogonalLoop=1;jettySize=auto;html=1;exitX=0.5;exitY=1;exitDx=0;exitDy=0;fontSize=12;startSize=8;endSize=8;startArrow=classic;startFill=1;" edge="1" parent="1" source="5_p8MwsJ-TnmLGE_cLR3-12" target="5_p8MwsJ-TnmLGE_cLR3-16">
          <mxGeometry relative="1" as="geometry" />
        </mxCell>
        <mxCell id="5_p8MwsJ-TnmLGE_cLR3-12" value="&lt;font face=&quot;Avenir&quot;&gt;Linter&lt;/font&gt;" style="rounded=0;whiteSpace=wrap;html=1;fillColor=light-dark(#c3abd0, #4e617e);" vertex="1" parent="1">
          <mxGeometry x="320" y="1280" width="80" height="40" as="geometry" />
        </mxCell>
        <mxCell id="5_p8MwsJ-TnmLGE_cLR3-16" value="&lt;font face=&quot;Avenir&quot;&gt;IDE&lt;/font&gt;" style="rounded=0;whiteSpace=wrap;html=1;fillColor=#91A8C9;" vertex="1" parent="1">
          <mxGeometry x="260" y="1400" width="200" height="40" as="geometry" />
        </mxCell>
        <mxCell id="5_p8MwsJ-TnmLGE_cLR3-40" style="edgeStyle=none;curved=1;rounded=0;orthogonalLoop=1;jettySize=auto;html=1;entryX=0.5;entryY=1;entryDx=0;entryDy=0;fontSize=12;startSize=8;endSize=8;startArrow=block;startFill=1;" edge="1" parent="1" source="5_p8MwsJ-TnmLGE_cLR3-19" target="5_p8MwsJ-TnmLGE_cLR3-16">
          <mxGeometry relative="1" as="geometry" />
        </mxCell>
        <mxCell id="5_p8MwsJ-TnmLGE_cLR3-19" value="&lt;font face=&quot;Avenir&quot;&gt;Contract&lt;/font&gt;" style="rounded=0;whiteSpace=wrap;html=1;fillColor=#C3ABD0;" vertex="1" parent="1">
          <mxGeometry x="320" y="1475" width="80" height="40" as="geometry" />
        </mxCell>
        <mxCell id="5_p8MwsJ-TnmLGE_cLR3-21" style="edgeStyle=orthogonalEdgeStyle;rounded=0;orthogonalLoop=1;jettySize=auto;html=1;entryX=0.5;entryY=1;entryDx=0;entryDy=0;" edge="1" parent="1" source="5_p8MwsJ-TnmLGE_cLR3-22" target="5_p8MwsJ-TnmLGE_cLR3-19">
          <mxGeometry relative="1" as="geometry" />
        </mxCell>
        <mxCell id="5_p8MwsJ-TnmLGE_cLR3-22" value="&lt;font face=&quot;Avenir&quot;&gt;USER&lt;/font&gt;" style="text;html=1;align=center;verticalAlign=middle;resizable=0;points=[];autosize=1;strokeColor=none;fillColor=none;" vertex="1" parent="1">
          <mxGeometry x="335" y="1540" width="50" height="30" as="geometry" />
        </mxCell>
        <mxCell id="5_p8MwsJ-TnmLGE_cLR3-23" value="&lt;font face=&quot;Avenir&quot;&gt;Developer&amp;nbsp;&lt;/font&gt;&lt;div&gt;&lt;font face=&quot;Avenir&quot;&gt;Facing&lt;/font&gt;&lt;/div&gt;" style="text;html=1;align=center;verticalAlign=middle;resizable=0;points=[];autosize=1;strokeColor=none;fillColor=none;" vertex="1" parent="1">
          <mxGeometry x="100" y="1240" width="80" height="40" as="geometry" />
        </mxCell>
        <mxCell id="5_p8MwsJ-TnmLGE_cLR3-24" value="&lt;font face=&quot;Avenir&quot;&gt;User Facing&lt;/font&gt;" style="text;html=1;align=center;verticalAlign=middle;resizable=0;points=[];autosize=1;strokeColor=none;fillColor=none;" vertex="1" parent="1">
          <mxGeometry x="150" y="1475" width="90" height="30" as="geometry" />
        </mxCell>
        <mxCell id="5_p8MwsJ-TnmLGE_cLR3-25" value="&lt;font face=&quot;Avenir&quot;&gt;User/Dev Interactions&lt;/font&gt;" style="rounded=0;whiteSpace=wrap;html=1;fillColor=#C3ABD0;" vertex="1" parent="1">
          <mxGeometry x="680" y="1200" width="80" height="40" as="geometry" />
        </mxCell>
        <mxCell id="5_p8MwsJ-TnmLGE_cLR3-26" value="&lt;font face=&quot;Avenir&quot;&gt;Tools&lt;/font&gt;" style="rounded=0;whiteSpace=wrap;html=1;fillColor=#A7D1A7;" vertex="1" parent="1">
          <mxGeometry x="680" y="1240" width="80" height="40" as="geometry" />
        </mxCell>
        <mxCell id="5_p8MwsJ-TnmLGE_cLR3-38" style="edgeStyle=orthogonalEdgeStyle;rounded=0;orthogonalLoop=1;jettySize=auto;html=1;entryX=0.5;entryY=0;entryDx=0;entryDy=0;fontSize=12;startSize=8;endSize=8;startArrow=classic;startFill=1;" edge="1" parent="1" source="5_p8MwsJ-TnmLGE_cLR3-31" target="5_p8MwsJ-TnmLGE_cLR3-16">
          <mxGeometry relative="1" as="geometry">
            <Array as="points">
              <mxPoint x="500" y="1370" />
              <mxPoint x="360" y="1370" />
            </Array>
          </mxGeometry>
        </mxCell>
        <mxCell id="5_p8MwsJ-TnmLGE_cLR3-31" value="&lt;font face=&quot;Avenir&quot;&gt;Language Server Protocol&lt;/font&gt;" style="rounded=0;whiteSpace=wrap;html=1;fillColor=light-dark(#c3abd0, #4e617e);" vertex="1" parent="1">
          <mxGeometry x="440" y="1280" width="120" height="40" as="geometry" />
        </mxCell>
      </root>
    </mxGraphModel>
  </diagram>
</mxfile>
